<?xml version="1.0" encoding="UTF-8" standalone="no"?>
<!-- Created with Inkscape (http://www.inkscape.org/) -->

<svg
   version="1.1"
   width="363.67419mm"
   height="147.61214mm"
   viewBox="0 0 103.00089 41.807405"
   id="svg2"
   xml:space="preserve"
   style="fill-rule:evenodd"
   xmlns="http://www.w3.org/2000/svg"
   xmlns:svg="http://www.w3.org/2000/svg">
 <defs
   id="defs4">
  <style
   type="text/css"
   id="style6" />
 </defs>
 <g
   id="Layer_x0020_1"
   transform="translate(-0.22580227,3.1307961e-4)">
  
  <path
   d="m 85.6644,1.39505 c 0.132577,0.012972 0.717633,0.079926 1.49171,0.081144 6.47688,0.43169 8.37536,1.63355 11.6459,2.8366 5.94754,1.48568 4.20373,2.18907 4.01691,3.08326 -3.10037,4.20576 -5.4353,4.63964 -9.31051,6.78313 -6.00979,3.91571 -7.25535,8.35559 -10.4938,12.5796 -0.871905,2.49741 -2.89594,3.63821 -0.653908,9.95887 2.14857,0.73998 2.42882,0.924982 2.58453,1.57246 -0.934186,0.24666 -1.99291,0.185002 -2.33541,0.123316 -1.18328,-1.17158 -0.280222,0.801666 -4.63969,-6.28978 -3.14501,-4.03906 -6.60144,-1.57246 -10.089,1.78825 -1.9306,0.986668 -3.581,2.25075 -5.5116,3.20661 -0.373629,0.277475 -0.840722,0.49332 -0.15566,1.07914 1.05872,0.863324 2.24197,1.1408 3.42526,1.26411 0,0 2.89594,0.24666 3.23844,0.277475 2.33541,0.400819 4.20373,0.955796 4.11032,1.47993 -1.27669,0.370004 -2.61563,0.770823 -4.91994,0.43169 -1.61922,-0.215817 -2.67794,0.09247 -4.01688,-0.0925 -3.6121,-0.585792 -10.5561,-3.17571 -10.5561,-3.17571 -1.61925,-0.308346 -3.45641,-0.770823 -5.57385,-1.54162 -3.95463,0.73998 -7.22423,2.09659 -14.137,0.616664 -1.99291,-0.801666 -2.61563,-0.339133 -7.13082,-3.45321 -9.31051,-7.27645 -18.154,-7.61558 -26.4058,-0.185002 10.1824,-12.5796 19.8666,-6.5056 29.5197,-0.370004 7.69129,3.7924 12.2376,2.09662 17.0952,0.863352 -0.186815,-18.6536 7.75357,-29.0133 27.5891,-27.41 l 3.56146,-1.17872 c -0.601993,-0.231932 -1.1762,-0.914474 -1.30034,-1.61155 -0.110174,-2.49713 2.27848,-3.09204 4.85205,-2.58759 -0.06602,-0.464346 -0.05214,-0.925152 0.521755,-1.36234 1.12842,-0.498135 2.74892,0.495047 3.57797,1.23242 m 0,0 z"
   id="path4509"
   style="fill:#1a5c4c;stroke:#1a5c4c;stroke-width:0.0566448" />
 </g>
</svg>
