<?xml version="1.0" encoding="UTF-8"?><svg xmlns="http://www.w3.org/2000/svg" viewBox="0 0 24.76 28.19"><defs><style>.d{fill:#1a5c4c;}</style></defs><g id="a"/><g id="b"><g id="c"><g><path class="d" d="M24.74,8.97l-13.81,3.27v11.44c-.77-.15-1.57-.09-2.3,.2-1.67,.61-2.69,2-2.3,3.11s2.08,1.54,3.74,.92c1.5-.55,2.36-1.92,2.36-2.77V14.05l10.74-2.54v9.64c-.79-.16-1.6-.09-2.35,.2-1.7,.63-2.75,2.06-2.34,3.21,.41,1.15,2.13,1.57,3.84,.95,1.44-.52,2.4-1.59,2.45-2.59l-.03-13.94Z"/><path class="d" d="M6.95,2.34c-.34-.22-.62-.52-.82-.86V.77c0-.42-.34-.77-.77-.77s-.77,.34-.77,.77V12.36c-.74-.13-1.51-.06-2.21,.21C.72,13.17-.3,14.56,.08,15.67c.38,1.11,2.08,1.54,3.74,.92,1.15-.42,2-1.22,2.28-2.05V6.45c.1,.08,.21,.16,.33,.22,2.56,1.54,1.15,3.96,2.4,3.97,1.61,.01,1.67-5.93-1.88-8.3h0Z"/></g></g></g></svg>